<?xml version="1.0" standalone="no"?>
<!DOCTYPE svg PUBLIC "-//W3C//DTD SVG 20010904//EN"
 "http://www.w3.org/TR/2001/REC-SVG-20010904/DTD/svg10.dtd">
<svg version="1.0" xmlns="http://www.w3.org/2000/svg"
 width="600.000000pt" height="600.000000pt" viewBox="0 0 600.000000 600.000000"
 preserveAspectRatio="xMidYMid meet">

<g transform="translate(0.000000,600.000000) scale(0.100000,-0.100000)"
fill="#000000" stroke="none">
<path d="M2576 4487 c5 -14 -20 -16 -203 -15 -114 0 -213 4 -218 8 -11 9 -92
-38 -710 -410 l-390 -235 192 -3 c219 -3 196 -9 370 98 95 59 98 60 105 38 4
-16 6 -18 7 -5 1 21 8 22 26 3 11 -10 11 -16 2 -26 -7 -7 7 -1 30 14 24 14 45
26 48 26 3 0 23 11 44 24 107 68 482 286 491 286 6 0 140 -77 299 -170 173
-102 295 -168 304 -164 9 3 21 -4 30 -17 15 -21 16 -21 19 15 l3 36 132 -80
132 -80 198 1 c188 0 197 1 174 17 -14 9 -189 116 -390 238 l-366 221 -3 87
-3 88 -99 -4 c-82 -2 -100 0 -104 12 -2 8 -4 0 -5 -17 0 -18 -3 -33 -6 -33 -3
0 -30 14 -60 31 -37 21 -53 26 -49 16z"/>
<path d="M2980 3940 c0 -5 5 -10 11 -10 5 0 7 5 4 10 -3 6 -8 10 -11 10 -2 0
-4 -4 -4 -10z"/>
<path d="M2150 3768 c0 -111 -2 -108 106 -108 l94 0 0 85 0 85 -100 0 -100 0
0 -62z"/>
<path d="M2390 3745 l0 -85 100 0 100 0 0 85 0 85 -100 0 -100 0 0 -85z"/>
<path d="M3030 3529 c0 -202 -2 -227 -17 -241 -10 -9 -112 -72 -228 -142
l-209 -126 206 0 c127 0 209 4 213 10 3 6 13 10 21 10 11 0 14 -24 14 -132 l0
-133 83 -31 c45 -17 90 -34 100 -39 16 -7 17 6 17 189 l0 195 323 192 c177
106 325 194 329 195 3 2 143 -78 310 -177 166 -100 309 -182 316 -182 6 0 12
-5 13 -11 1 -6 6 6 13 26 l11 37 126 -75 126 -74 196 2 197 3 -381 230 c-269
162 -384 237 -390 253 -5 13 -9 65 -10 115 0 51 -3 87 -5 81 -3 -8 -31 -10
-89 -6 -68 4 -85 2 -85 -9 0 -11 -2 -11 -10 1 -7 11 -10 4 -10 -27 0 -24 -3
-43 -6 -43 -4 0 -29 14 -56 30 -27 17 -54 27 -60 24 -6 -4 -8 -3 -5 3 7 10
-20 28 -35 25 -5 -1 -8 4 -8 11 0 6 -5 4 -11 -6 -9 -16 -25 -18 -142 -15 -73
1 -138 -1 -145 -5 -7 -5 -12 -3 -12 7 0 16 -91 -32 -348 -188 -79 -47 -145
-86 -148 -86 -2 0 -4 73 -4 161 0 134 -2 160 -13 150 -8 -6 -17 -8 -21 -4 -3
4 -38 6 -78 5 -49 -2 -74 2 -80 10 -4 7 -8 -89 -8 -213z m207 -365 c-3 -3 -2
-16 3 -29 6 -16 4 -26 -11 -38 -10 -9 -19 -12 -19 -7 0 5 -13 7 -29 4 -48 -10
-46 14 5 46 45 28 65 38 51 24z"/>
<path d="M3215 3110 c-3 -6 1 -7 9 -4 18 7 21 14 7 14 -6 0 -13 -4 -16 -10z"/>
<path d="M1510 3170 c0 -303 3 -550 8 -548 4 2 51 26 105 52 l97 49 0 242 c0
334 -12 765 -21 735 -6 -20 -7 -21 -8 -5 -1 16 -3 17 -10 6 -7 -11 -24 -12
-77 -7 -38 4 -74 12 -81 18 -11 8 -13 -91 -13 -542z"/>
<path d="M2157 3623 c-9 -8 -9 -126 -1 -147 5 -13 24 -16 100 -16 l94 0 0 85
0 85 -93 0 c-52 0 -97 -3 -100 -7z"/>
<path d="M2390 3545 l0 -85 100 0 101 0 -3 83 -3 82 -97 3 -98 3 0 -86z"/>
<path d="M3670 2925 l0 -86 98 3 97 3 3 83 3 82 -101 0 -100 0 0 -85z"/>
<path d="M3910 2925 l0 -85 95 0 95 0 0 85 0 85 -95 0 -95 0 0 -85z"/>
<path d="M4731 2889 c-1 -13 -10 -14 -53 -9 -29 4 -69 5 -89 2 -32 -4 -38 -9
-43 -34 -3 -17 -6 -188 -6 -380 l0 -350 53 6 c28 4 75 13 102 20 l50 12 3 343
c1 188 -2 357 -7 374 -5 18 -10 25 -10 16z"/>
<path d="M3670 2725 l0 -85 100 0 100 0 0 85 0 85 -100 0 -100 0 0 -85z"/>
<path d="M3910 2725 l0 -85 95 0 95 0 0 85 0 85 -95 0 -95 0 0 -85z"/>
<path d="M2290 2779 c-156 -16 -396 -71 -385 -88 2 -5 -8 -8 -23 -8 -15 0 -45
-7 -67 -16 l-40 -16 33 -1 c17 0 32 -4 32 -10 0 -5 -7 -10 -15 -10 -13 0 -18
-11 -30 -72 -1 -9 2 -19 9 -21 6 -3 -6 -8 -27 -12 -20 -4 -40 -12 -43 -17 -4
-6 1 -8 12 -4 198 59 335 79 549 79 215 0 355 -22 538 -83 198 -67 361 -155
542 -296 264 -204 587 -307 915 -291 266 12 505 94 731 248 111 76 135 104 39
45 -249 -154 -575 -210 -868 -150 -224 46 -398 136 -605 316 -339 293 -848
452 -1297 407z"/>
<path d="M2175 2424 c-16 -2 -58 -7 -91 -10 -61 -5 -62 -6 -55 -32 l7 -27 150
-6 c390 -17 702 -125 1012 -353 293 -215 645 -299 982 -234 l65 12 -100 7
c-202 15 -413 74 -575 162 -41 22 -129 77 -195 122 -273 185 -534 291 -835
340 -97 15 -311 27 -365 19z"/>
<path d="M1978 2393 c6 -2 18 -2 25 0 6 3 1 5 -13 5 -14 0 -19 -2 -12 -5z"/>
<path d="M1970 2350 c-12 -8 -11 -10 8 -10 12 0 22 5 22 10 0 13 -11 13 -30 0z"/>
</g>
</svg>
